<svg width="61" height="62" viewBox="0 0 61 62" fill="none" xmlns="http://www.w3.org/2000/svg">
<path d="M50.9696 0.889648H10.8861C5.35173 0.889648 0.865234 5.41006 0.865234 10.9863V51.3727C0.865234 56.9489 5.35173 61.4694 10.8861 61.4694H50.9696C56.504 61.4694 60.9905 56.9489 60.9905 51.3727V10.9863C60.9905 5.41006 56.504 0.889648 50.9696 0.889648Z" fill="#0071A1"/>
<path d="M14.3934 9.2193C15.4168 9.22926 16.4145 9.54415 17.2607 10.1243C18.1069 10.7045 18.7637 11.5239 19.1486 12.4795C19.5334 13.4351 19.629 14.484 19.4233 15.4942C19.2175 16.5044 18.7197 17.4307 17.9925 18.1564C17.2653 18.8821 16.3412 19.3747 15.3367 19.5723C14.3321 19.7698 13.292 19.6635 12.3474 19.2666C11.4027 18.8696 10.5957 18.2 10.0281 17.3418C9.46044 16.4837 9.15752 15.4755 9.15747 14.4443C9.16075 13.7548 9.29879 13.0728 9.56369 12.437C9.8286 11.8013 10.2152 11.2244 10.7014 10.7392C11.1876 10.254 11.7639 9.87006 12.3974 9.60927C13.0308 9.34849 13.7091 9.21598 14.3934 9.2193ZM9.88398 52.5085H18.9028V23.607H9.88398V52.5085Z" fill="#FFFFFE"/>
<path d="M24.5647 23.6068H33.2077V27.5445H33.4332C34.3095 26.0648 35.5653 24.8502 37.0686 24.0285C38.5718 23.2068 40.267 22.8083 41.976 22.8748C51.12 22.8748 52.7985 28.8571 52.7985 36.6567V52.5084H43.7797V38.4489C43.7797 35.0917 43.7797 30.8764 39.095 30.8764C34.4102 30.8764 33.6837 34.5364 33.6837 38.3227V52.6094H24.5647V23.6068Z" fill="#FFFFFE"/>
</svg>
