<svg width="141" height="29" viewBox="0 0 141 29" fill="none" xmlns="http://www.w3.org/2000/svg">
<path d="M13 0L15.9187 10.0193L25.3637 10.0193L17.7225 16.2115L20.6412 26.2307L13 20.0385L5.35879 26.2307L8.27747 16.2115L0.636266 10.0193L10.0813 10.0193L13 0Z" fill="#0F695E"/>
<path d="M42 0L44.9187 10.0193L54.3637 10.0193L46.7225 16.2115L49.6412 26.2307L42 20.0385L34.3588 26.2307L37.2775 16.2115L29.6363 10.0193L39.0813 10.0193L42 0Z" fill="#0F695E"/>
<path d="M72 0L74.9187 10.0193L84.3637 10.0193L76.7225 16.2115L79.6412 26.2307L72 20.0385L64.3588 26.2307L67.2775 16.2115L59.6363 10.0193L69.0813 10.0193L72 0Z" fill="#0F695E"/>
<path d="M101 0L103.919 10.0193L113.364 10.0193L105.723 16.2115L108.641 26.2307L101 20.0385L93.3588 26.2307L96.2775 16.2115L88.6363 10.0193L98.0813 10.0193L101 0Z" fill="#0F695E"/>
<path d="M128 0L130.919 10.0193L140.364 10.0193L132.723 16.2115L135.641 26.2307L128 20.0385L120.359 26.2307L123.277 16.2115L115.636 10.0193L125.081 10.0193L128 0Z" fill="#0F695E"/>
</svg>
