<svg width="224" height="70" viewBox="0 0 224 70" fill="none" xmlns="http://www.w3.org/2000/svg">
<ellipse cx="32" cy="35" rx="32" ry="35" fill="#D9D9D9"/>
<ellipse cx="112" cy="35" rx="32" ry="35" fill="#D9D9D9"/>
<ellipse cx="192" cy="35" rx="32" ry="35" fill="#FF0000"/>
<ellipse cx="31" cy="28" rx="7" ry="15" fill="black"/>
<path d="M18.5 39.5C22.6667 48 33.4 59.9 43 39.5" stroke="black" stroke-width="3"/>
<path d="M172.437 27C167.3 27 166.729 36.6729 167.086 41.5093C171.902 54.3117 176.717 41.5093 174.577 35.5349H209.893C207.218 47.4838 215.993 51.0684 216.849 41.5093C217.705 31.9502 214.709 27.8535 213.104 27H172.437Z" fill="white" stroke="white"/>
<line x1="31.5" y1="51" x2="31.5" y2="67" stroke="black" stroke-width="3"/>
<rect x="90" y="25" width="32" height="25" rx="7" fill="black"/>
<path d="M123.262 36.7904L132.947 30.1985L133.076 43.1882L123.262 36.7904Z" fill="black"/>
</svg>
