<svg width="101" height="97" viewBox="0 0 101 97" fill="none" xmlns="http://www.w3.org/2000/svg">
<mask id="path-1-inside-1_35_59" fill="white">
<path d="M100.163 48.2364C100.163 55.5359 98.443 62.7402 95.1326 69.3065C91.8222 75.8727 87.0077 81.6298 81.0518 86.1437C75.096 90.6577 68.1542 93.8109 60.7494 95.3658C53.3447 96.9207 45.6701 96.8366 38.3039 95.12L43.2905 75.2698C47.5379 76.2596 51.9631 76.308 56.2327 75.4115C60.5023 74.515 64.505 72.6968 67.9392 70.094C71.3734 67.4912 74.1494 64.1717 76.0583 60.3855C77.9671 56.5994 78.9588 52.4453 78.9588 48.2364H100.163Z"/>
</mask>
<path d="M100.163 48.2364C100.163 55.5359 98.443 62.7402 95.1326 69.3065C91.8222 75.8727 87.0077 81.6298 81.0518 86.1437C75.096 90.6577 68.1542 93.8109 60.7494 95.3658C53.3447 96.9207 45.6701 96.8366 38.3039 95.12L43.2905 75.2698C47.5379 76.2596 51.9631 76.308 56.2327 75.4115C60.5023 74.515 64.505 72.6968 67.9392 70.094C71.3734 67.4912 74.1494 64.1717 76.0583 60.3855C77.9671 56.5994 78.9588 52.4453 78.9588 48.2364H100.163Z" stroke="#F9EA70" stroke-opacity="0.85" stroke-width="60" mask="url(#path-1-inside-1_35_59)"/>
<mask id="path-2-inside-2_35_59" fill="white">
<path d="M37.8464 95.5384C31.4689 93.9908 25.4703 91.2486 20.1931 87.4682C14.9159 83.6878 10.4635 78.9433 7.09006 73.5056C3.71662 68.0678 1.48821 62.0434 0.532072 55.7762C-0.424064 49.509 -0.0892025 43.1218 1.51754 36.9792L22.0792 41.9686C21.1528 45.5105 20.9597 49.1934 21.511 52.8071C22.0623 56.4208 23.3472 59.8945 25.2924 63.0299C27.2375 66.1654 29.8048 68.9011 32.8477 71.0809C35.8905 73.2607 39.3494 74.8419 43.0267 75.7342L37.8464 95.5384Z"/>
</mask>
<path d="M37.8464 95.5384C31.4689 93.9908 25.4703 91.2486 20.1931 87.4682C14.9159 83.6878 10.4635 78.9433 7.09006 73.5056C3.71662 68.0678 1.48821 62.0434 0.532072 55.7762C-0.424064 49.509 -0.0892025 43.1218 1.51754 36.9792L22.0792 41.9686C21.1528 45.5105 20.9597 49.1934 21.511 52.8071C22.0623 56.4208 23.3472 59.8945 25.2924 63.0299C27.2375 66.1654 29.8048 68.9011 32.8477 71.0809C35.8905 73.2607 39.3494 74.8419 43.0267 75.7342L37.8464 95.5384Z" stroke="#FC5858" stroke-width="60" mask="url(#path-2-inside-2_35_59)"/>
<mask id="path-3-inside-3_35_59" fill="white">
<path d="M0.853031 39.8986C3.19544 27.8317 10.2265 17.0789 20.5137 9.83121C30.8009 2.58351 43.5702 -0.613765 56.2197 0.89083C68.8692 2.39543 80.4472 8.48867 88.5947 17.9291C96.7422 27.3695 100.846 39.4467 100.07 51.7L78.4628 50.4307C78.9034 43.4739 76.5734 36.617 71.9476 31.2571C67.3218 25.8973 60.7483 22.4378 53.5665 21.5836C46.3847 20.7293 39.1349 22.5446 33.2943 26.6595C27.4536 30.7744 23.4617 36.8794 22.1318 43.7305L0.853031 39.8986Z"/>
</mask>
<path d="M0.853031 39.8986C3.19544 27.8317 10.2265 17.0789 20.5137 9.83121C30.8009 2.58351 43.5702 -0.613765 56.2197 0.89083C68.8692 2.39543 80.4472 8.48867 88.5947 17.9291C96.7422 27.3695 100.846 39.4467 100.07 51.7L78.4628 50.4307C78.9034 43.4739 76.5734 36.617 71.9476 31.2571C67.3218 25.8973 60.7483 22.4378 53.5665 21.5836C46.3847 20.7293 39.1349 22.5446 33.2943 26.6595C27.4536 30.7744 23.4617 36.8794 22.1318 43.7305L0.853031 39.8986Z" stroke="#A2F271" stroke-width="60" mask="url(#path-3-inside-3_35_59)"/>
</svg>
