<svg width="60" height="63" viewBox="0 0 60 63" fill="none" xmlns="http://www.w3.org/2000/svg">
<path d="M49.5477 0H9.90953C4.43665 0 0 4.65714 0 10.402V52.01C0 57.7549 4.43665 62.412 9.90953 62.412H49.5477C55.0206 62.412 59.4572 57.7549 59.4572 52.01V10.402C59.4572 4.65714 55.0206 0 49.5477 0Z" fill="#0071A1"/>
<path d="M13.3779 8.58161C14.39 8.59187 15.3766 8.91628 16.2134 9.51399C17.0501 10.1117 17.6997 10.9559 18.0803 11.9404C18.4608 12.9249 18.5553 14.0056 18.3519 15.0463C18.1485 16.0871 17.6562 17.0414 16.9371 17.789C16.218 18.5367 15.3041 19.0442 14.3108 19.2477C13.3174 19.4513 12.2888 19.3417 11.3546 18.9328C10.4205 18.5238 9.62246 17.8339 9.06113 16.9498C8.4998 16.0657 8.20024 15.0271 8.2002 13.9646C8.20344 13.2543 8.33994 12.5516 8.60191 11.8967C8.86387 11.2417 9.24616 10.6473 9.72696 10.1475C10.2078 9.64761 10.7776 9.25205 11.4041 8.98338C12.0305 8.7147 12.7012 8.57818 13.3779 8.58161ZM8.91864 53.1802H17.8372V23.4045H8.91864V53.1802Z" fill="#FFFFFE"/>
<path d="M23.436 23.4046H31.983V27.4614H32.206C33.0726 25.9369 34.3144 24.6856 35.801 23.839C37.2875 22.9924 38.9639 22.5819 40.6538 22.6504C49.6963 22.6504 51.3561 28.8136 51.3561 36.8492V53.1803H42.4376V38.6955C42.4376 35.2369 42.4376 30.894 37.8049 30.894C33.1722 30.894 32.4537 34.6648 32.4537 38.5655V53.2843H23.436V23.4046Z" fill="#FFFFFE"/>
</svg>
