<svg width="61" height="62" viewBox="0 0 61 62" fill="none" xmlns="http://www.w3.org/2000/svg">
<path fill-rule="evenodd" clip-rule="evenodd" d="M0.0898438 10.961C0.0898438 5.40788 4.54913 0.889648 10.0857 0.889648H50.2193C55.7308 0.889648 60.2151 5.38264 60.2151 10.961V51.398C60.2151 56.9511 55.7558 61.4694 50.2193 61.4694H10.0857C7.43461 61.4694 4.89213 60.4083 3.01755 58.5195C1.14297 56.6308 0.0898438 54.0691 0.0898438 51.398L0.0898438 10.961ZM50.1942 11.3396C49.3425 11.2387 46.3612 10.9863 42.9291 10.9863C35.7141 10.9863 30.7788 15.1764 30.7788 22.8498V29.4631H22.6368V38.4491H30.7788V61.4694H40.5491V38.4491H48.641L49.8936 29.4631H40.5241V23.7332C40.5241 21.1586 41.2756 19.3665 45.1838 19.3665H50.1942V11.3396Z" fill="#39579A"/>
</svg>
