<svg width="60" height="63" viewBox="0 0 60 63" fill="none" xmlns="http://www.w3.org/2000/svg">
<path fill-rule="evenodd" clip-rule="evenodd" d="M0 10.376C0 4.6549 4.40974 0 9.88476 0H49.5724C55.0227 0 59.4572 4.62889 59.4572 10.376V52.036C59.4572 57.7571 55.0475 62.412 49.5724 62.412H9.88476C7.26316 62.412 4.74893 61.3188 2.89518 59.373C1.04143 57.4271 0 54.7879 0 52.036L0 10.376ZM49.5477 10.7661C48.7054 10.6621 45.7573 10.402 42.3633 10.402C35.2284 10.402 30.3479 14.7188 30.3479 22.6244V29.4377H22.2964V38.6955H30.3479V62.412H40.0097V38.6955H48.0117L49.2504 29.4377H39.985V23.5345C39.985 20.882 40.7282 19.0357 44.5929 19.0357H49.5477V10.7661Z" fill="#39579A"/>
</svg>
